# xmcd
#
# Track frame offsets: 
#        150
#        15170
#        30928
#        46261
#        59842
#        74757
#        91365
#        105804
#        122537
#        135264
#        149503
#        164619
#        179286
#
# Disc length: 2537 seconds
#
# Revision: 0
# Processed by: cddbd v1.5.2PL0 Copyright (c) Steve Scherf et al.
# Submitted via: ExactAudioCopy v0.99pb4
#
DISCID=a809e70d
DTITLE=Lindsay - Liefde and Muziek
DYEAR=2014
DGENRE=Chanson
TTITLE0=Dag En Nacht
TTITLE1=Over Alle 7 Zeeën
TTITLE2=Bella Romantica
TTITLE3=Een Liefde Voor Het Leven
TTITLE4=De Kracht Van Mijn Gevoel
TTITLE5=Ik Wil Zo Graag Weer Bij Jou Zijn
TTITLE6=Liefde En Muziek
TTITLE7=Kom In Mijn Armen (Met Christoff)
TTITLE8=Nooit Was Het Leven Zo Mooi
TTITLE9=Laat Me Hier Vanavond Niet Alleen
TTITLE10=Dans Nog Eenmaal Met Mij
TTITLE11=In De Sterren Staat Geschreven
TTITLE12=Nine To Five (Met Robby Longo)
EXTD=
EXTT0=
EXTT1=
EXTT2=
EXTT3=
EXTT4=
EXTT5=
EXTT6=
EXTT7=
EXTT8=
EXTT9=
EXTT10=
EXTT11=
EXTT12=
PLAYORDER=
